<svg width="204" height="182" viewBox="0 0 204 182" fill="none" xmlns="http://www.w3.org/2000/svg">
<path fill-rule="evenodd" clip-rule="evenodd" d="M52 180.695L2 90.8477L26.8619 90.6551L64.5691 155.101L101.297 157.322L52 180.695Z" fill="#2C2C2C"/>
<path d="M152 180.695L202 90.8477L176.712 92.8763L139.005 157.322H101.297L52 180.695H152Z" fill="#575757"/>
<path d="M52 1L2 90.8477L26.8619 90.6551L64.5691 26.2094H102.276L152 1H52Z" fill="#575757"/>
<path fill-rule="evenodd" clip-rule="evenodd" d="M176.712 92.8763L121.954 110.451L82.1092 73.3436L102.276 26.2094H139.983L176.712 92.8763ZM133.212 43.4955H112.606L107.249 71.1176L125.939 90.6551L152 83.2592L133.212 43.4955Z" fill="#4BE0D8"/>
<path d="M133.212 43.4955H112.606L107.249 71.1176L125.939 90.6551L152 83.2592L133.212 43.4955Z" fill="#6DF9F2"/>
<path fill-rule="evenodd" clip-rule="evenodd" d="M64.5691 155.101L26.8619 90.6551L82.1092 73.3436L121.954 110.451L101.297 157.322L64.5691 155.101ZM79.8788 92.8763L102.276 110.451L95.0303 136.682H71.0909L49.8788 101.775L79.8788 92.8763Z" fill="#005DBD"/>
<path d="M102.276 110.451L79.8788 92.8763L49.8788 101.775L71.0909 136.682H95.0303L102.276 110.451Z" fill="#1D7EE2"/>
<path fill-rule="evenodd" clip-rule="evenodd" d="M26.8619 90.6551L64.5691 26.2094H102.276L82.1092 73.3436L26.8619 90.6551ZM85.6364 38.3354H68.9697L46.2424 73.3436L73.2121 65.3504L85.6364 38.3354Z" fill="#2C2C2C"/>
<path d="M202 90.8477L152 1L102.276 26.2094H139.983L176.712 92.8763L202 90.8477Z" fill="#2C2C2C"/>
<path d="M85.6364 38.3354H68.9697L46.2424 73.3436L73.2121 65.3504L85.6364 38.3354Z" fill="#252525"/>
<path fill-rule="evenodd" clip-rule="evenodd" d="M176.712 92.8763L139.005 157.322H101.297L121.954 110.451L176.712 92.8763ZM130.571 115.352L158.364 107.846L136.694 145.982H118.327L130.571 115.352Z" fill="#2C2C2C"/>
<path d="M158.364 107.846L130.571 115.352L118.327 145.982H136.694L158.364 107.846Z" fill="#252525"/>
<path d="M202 90.8477L152 180.695H52M202 90.8477L152 1M202 90.8477L176.712 92.8763M52 180.695L2 90.8477M52 180.695L101.297 157.322M2 90.8477L52 1H152M2 90.8477L26.8619 90.6551M152 1L102.276 26.2094M176.712 92.8763L139.005 157.322M176.712 92.8763L121.954 110.451M176.712 92.8763L139.983 26.2094M176.712 92.8763L152 83.2592M176.712 92.8763L158.364 107.846M139.005 157.322H101.297M139.005 157.322L136.694 145.982M64.5691 155.101L26.8619 90.6551M64.5691 155.101L101.297 157.322M64.5691 155.101L71.0909 136.682M26.8619 90.6551L64.5691 26.2094M26.8619 90.6551L82.1092 73.3436M26.8619 90.6551L49.8788 101.775M26.8619 90.6551L46.2424 73.3436M64.5691 26.2094H102.276M64.5691 26.2094L68.9697 38.3354M139.983 26.2094H102.276M139.983 26.2094L133.212 43.4955M102.276 26.2094L82.1092 73.3436M102.276 26.2094L112.606 43.4955M102.276 26.2094L85.6364 38.3354M121.954 110.451L82.1092 73.3436M121.954 110.451L101.297 157.322M121.954 110.451L125.939 90.6551M121.954 110.451H102.276M121.954 110.451L130.571 115.352M101.297 157.322L95.0303 136.682M101.297 157.322L118.327 145.982M82.1092 73.3436L107.249 71.1176M82.1092 73.3436L79.8788 92.8763M82.1092 73.3436L73.2121 65.3504M112.606 43.4955H133.212M112.606 43.4955L107.249 71.1176M133.212 43.4955L152 83.2592M152 83.2592L125.939 90.6551M125.939 90.6551L107.249 71.1176M79.8788 92.8763L102.276 110.451M79.8788 92.8763L49.8788 101.775M102.276 110.451L95.0303 136.682M95.0303 136.682H71.0909M71.0909 136.682L49.8788 101.775M68.9697 38.3354H85.6364M68.9697 38.3354L46.2424 73.3436M85.6364 38.3354L73.2121 65.3504M73.2121 65.3504L46.2424 73.3436M130.571 115.352L158.364 107.846M130.571 115.352L118.327 145.982M158.364 107.846L136.694 145.982M136.694 145.982H118.327" stroke="black" stroke-width="2"/>
</svg>
